<svg xmlns="http://www.w3.org/2000/svg" viewBox="0 0 792 612"><defs><style>.cls-1{fill:#b6465f;}.cls-2{fill:#fff;}</style></defs><g id="horz_white" data-name="horz — white"><path class="cls-1" d="M698.59,269.4h-143a5.82,5.82,0,0,0-5.82,5.82v81.21a5.83,5.83,0,0,0,5.82,5.83h143a5.83,5.83,0,0,0,5.82-5.83V275.22A5.83,5.83,0,0,0,698.59,269.4ZM555.43,356.8V274.85H698.71V356.8Z"/><path class="cls-2" d="M626.78,273.49h0a1.29,1.29,0,0,0,.29,0,1.27,1.27,0,0,0,.28,0,1.42,1.42,0,0,0,.73-.37,1.48,1.48,0,0,0-.78-2.55.93.93,0,0,0-.23,0,.78.78,0,0,0-.22,0h-.08a1.46,1.46,0,0,0-1.19,1.45,1.44,1.44,0,0,0,.48,1.09A1.39,1.39,0,0,0,626.78,273.49Z"/><path class="cls-1" d="M538.36,362.22v3.53c0,2.19,3.56,4,7.95,4H707.83c4.4,0,8-1.79,8-4v-3.53Z"/><path class="cls-2" d="M617.27,362.26v.5c0,.32.4.57.88.57H636c.48,0,.87-.25.87-.57v-.5Z"/><path class="cls-2" d="M308.44,400.94a1.24,1.24,0,0,1,.47.66.62.62,0,0,1-.29.66,150.48,150.48,0,0,1-35,18.25A107.93,107.93,0,0,1,236.85,427a96.16,96.16,0,0,1-37.63-8,115,115,0,0,1-43.09-32.27c-.19-.25-.34-.47-.47-.66a5.38,5.38,0,0,1-.56-.66,15.2,15.2,0,0,0-1.32-1.46,2.3,2.3,0,0,0-1-.61,16.48,16.48,0,0,0-2.72,1,68,68,0,0,1-12.19,4.32,51.92,51.92,0,0,1-13.26,1.65,28.36,28.36,0,0,1-12.23-2.73,21.75,21.75,0,0,1-9.27-8.89,41,41,0,0,1-4.23-10.82,54.26,54.26,0,0,1-1.41-11.57,93.47,93.47,0,0,1,5.17-32.83,11.59,11.59,0,0,1,.47-1.32c.25-.62.47-1.22.66-1.78a1.89,1.89,0,0,0-.85-2.36,4.41,4.41,0,0,1-.75-.47,24.7,24.7,0,0,1-2.44-1.5Q87.08,307.52,88,292a45.37,45.37,0,0,1,7.06-20.5A89.53,89.53,0,0,1,111.59,252a132.28,132.28,0,0,1,22.67-16.41,128.17,128.17,0,0,1,25.59-11.34A87.08,87.08,0,0,1,185.11,220a45.74,45.74,0,0,1,21.68,4.75q9.54,4.89,14.82,15.71a56.41,56.41,0,0,1,5,24.27q-.09,1.69-.09,3.39a12.62,12.62,0,0,0-.1,1.51,104.22,104.22,0,0,1-3.24,22.76,138.52,138.52,0,0,1-7.67,21.83,151.75,151.75,0,0,1-22.53,36,145.28,145.28,0,0,1-31.94,28,3.35,3.35,0,0,1-.47.28c-.5.32-1,.63-1.41.94a1.53,1.53,0,0,0-.19,2.36,2.86,2.86,0,0,1,.28.47l.38.37a114.44,114.44,0,0,0,34,29.12,94.89,94.89,0,0,0,40.64,11.76q21.59,1.26,44.36-7.86a111.47,111.47,0,0,0,21.63-12.23c1.51-1,3.07-1.94,4.71-2.82a3.52,3.52,0,0,1,1.6-.38A3.28,3.28,0,0,1,308.44,400.94ZM155.75,376.86a1.93,1.93,0,0,0,1-.38c.56-.37,1.16-.75,1.79-1.13,1.88-1.25,3.73-2.54,5.55-3.85a146.16,146.16,0,0,0,48.07-62.37,117.46,117.46,0,0,0,6.25-19.57,132.31,132.31,0,0,0,3-21.92,65.91,65.91,0,0,0-.85-11.48,47.31,47.31,0,0,0-5.74-17.31,29,29,0,0,0-14.06-12.46,43.15,43.15,0,0,0-19.66-2.87,85.42,85.42,0,0,0-22.58,4.89,121.52,121.52,0,0,0-22.77,10.87,127.18,127.18,0,0,0-20.18,15.14,87,87,0,0,0-14.91,17.69,45.32,45.32,0,0,0-6.91,18.39q-1.7,15,10.44,23.33a3.47,3.47,0,0,0,1.41.75,2.58,2.58,0,0,0,1.32-1.31c.5-.76,1-1.48,1.41-2.17.69-1.19,1.41-2.32,2.16-3.38a3.31,3.31,0,0,1,2.83-1.6h.37a1.65,1.65,0,0,1,1.18.51,1,1,0,0,1,.23,1.18c-.5,1-1,2-1.6,3-.75,1.26-1.44,2.51-2.07,3.76q-1.5,2.64,1.23,3.3a33.86,33.86,0,0,0,16.7,1,36.45,36.45,0,0,0,14.86-6.59,39.24,39.24,0,0,0,10.91-12.41,38,38,0,0,0,4.75-16.56A35.56,35.56,0,0,0,157.17,267a1.39,1.39,0,0,1-.15-.8,1.57,1.57,0,0,1,.24-.7,1.78,1.78,0,0,1,1.6-.66,1.58,1.58,0,0,1,.75,0,3.14,3.14,0,0,1,2.26,2.16,33.84,33.84,0,0,1,2.44,9.88,38.78,38.78,0,0,1-2.54,19.52,42,42,0,0,1-11.24,15.9,40.32,40.32,0,0,1-17.64,9.08,46.67,46.67,0,0,1-21.45-.1,7.84,7.84,0,0,0-1.88-.28,1.3,1.3,0,0,0-1.08.56,6.16,6.16,0,0,0-.8,1.7A105.81,105.81,0,0,0,103.45,340a82.28,82.28,0,0,0-1,17.12,47.09,47.09,0,0,0,4,17.88q3.11,6.87,8.09,9.78a21.59,21.59,0,0,0,10.91,3,38.23,38.23,0,0,0,12-1.93,68.65,68.65,0,0,0,11.67-5,1.43,1.43,0,0,0,.56-2.26c-.69-1-1.35-2-2-2.91-1.57-2.32-3.11-4.65-4.61-7a75.76,75.76,0,0,1-6.87-13.93c-.44-1.19-.81-2.4-1.13-3.62a15.41,15.41,0,0,1-.47-3.81,12.75,12.75,0,0,1,.47-2.63,2.16,2.16,0,0,1,1-1.27,3.29,3.29,0,0,1,1.69-.43,4.74,4.74,0,0,1,.85.1,1.19,1.19,0,0,1,.94.8,3,3,0,0,1,.09,1.27,17.55,17.55,0,0,0,1.41,7.43A73.91,73.91,0,0,0,147,364.77q3.43,5.79,7.38,11.15A2.19,2.19,0,0,0,155.75,376.86Z"/><path class="cls-2" d="M218.69,346.19q-4,0-4.05-4.23,0-5.18,6.68-18.25a1,1,0,0,1,.94-.57c1.82,0,2.73.72,2.73,2.17a5,5,0,0,1-.47,1.88q-.18.29-4.51,11.29a8.67,8.67,0,0,0-.66,2.63c0,.63.28.94.84.94q3.1,0,16.37-15.52,1.69-2.07,3.39-2.07c1.63,0,2.45.6,2.45,1.79a34.54,34.54,0,0,1-1.51,5.17,43.86,43.86,0,0,0-2.07,7.06c0,.94.32,1.41.94,1.41q2.36,0,13.74-8.37a1.88,1.88,0,0,1,1.13-.57c.69,0,1,.6,1,1.79a1,1,0,0,1-.28.75,96.35,96.35,0,0,1-10.26,7.9,13.17,13.17,0,0,1-6.86,2.45h-.57q-4.42-.94-4.42-6.87-4.71,4.14-7.81,6.68A10.42,10.42,0,0,1,218.69,346.19Z"/><path class="cls-2" d="M275.32,339.42a20.51,20.51,0,0,1-3.2,2,23.19,23.19,0,0,1-5.83,2.4,26.49,26.49,0,0,1-4.8.61,18.47,18.47,0,0,1-7.24-1q-5.35-2.26-3.76-8.47a14.5,14.5,0,0,1,6.39-8.28,17.81,17.81,0,0,1,9.88-2.91,7,7,0,0,1,2.54.28,3.25,3.25,0,0,1,2.54,2.21,4.45,4.45,0,0,1-.75,3.62,10.23,10.23,0,0,1-7.81,4.8,19.11,19.11,0,0,1-6.3-.28,1.17,1.17,0,0,0-1,.28,1.66,1.66,0,0,0-.47.94c-.62,2.57.16,4.27,2.35,5.08a13.22,13.22,0,0,0,8.38-.09,24.74,24.74,0,0,0,9.5-5.93.3.3,0,0,0,.19-.09,13.32,13.32,0,0,1,5.45-6.49,15.64,15.64,0,0,1,8.75-2.54h.1a14.22,14.22,0,0,1,2.25.18,3,3,0,0,1,2.21,2.07,4.18,4.18,0,0,1-.61,3.3,9.13,9.13,0,0,1-7.05,4.23,19,19,0,0,1-5.65-.28.91.91,0,0,0-.89.28,1.75,1.75,0,0,0-.42.85q-.86,3.48,2.07,4.51a11.42,11.42,0,0,0,7.52-.09,21.9,21.9,0,0,0,8.56-5.27q4.05-3.86,4.66-3.62c.41.15.52.67.33,1.55a10.17,10.17,0,0,1-2.87,4.23,23.22,23.22,0,0,1-5.41,3.91,22.43,22.43,0,0,1-5.17,2.11,23.3,23.3,0,0,1-4.33.57,16,16,0,0,1-6.49-.94A5.61,5.61,0,0,1,275.32,339.42Zm-16.27-9.6a1.38,1.38,0,0,0-.38.66c-.06.25.06.47.38.66a4.71,4.71,0,0,0,3.34.66,6,6,0,0,0,3.1-1.37,3,3,0,0,0,1.08-2.77A.8.8,0,0,0,266,327a2.4,2.4,0,0,0-1,0A11.73,11.73,0,0,0,259.05,329.82ZM283.22,331a1.1,1.1,0,0,0-.32.61.62.62,0,0,0,.32.61,4.67,4.67,0,0,0,3,.57,5,5,0,0,0,2.77-1.18,3,3,0,0,0,1-2.58.65.65,0,0,0-.52-.57,4.78,4.78,0,0,0-1-.09A11,11,0,0,0,283.22,331Z"/><path class="cls-2" d="M331.91,335.56a27.08,27.08,0,0,1-5.08,3.81,53.93,53.93,0,0,1-6.26,3.06,9.18,9.18,0,0,1-5,.7c-1.76-.22-2.64-1.28-2.64-3.19a13.36,13.36,0,0,1,1.32-5.7c.88-1.94,1.07-2.94.56-3s-1.53.41-3.1,1.41a76.75,76.75,0,0,0-11.38,9.22,5.08,5.08,0,0,1-3.58,1.89A2.19,2.19,0,0,1,295,343a1.25,1.25,0,0,1-.14-1.55q3.76-7,7.62-13.74a3.76,3.76,0,0,1,2.54-1.78,1.59,1.59,0,0,1,1.36.47,1.72,1.72,0,0,1,.62,1.31,5.77,5.77,0,0,1-.57,1.6c-.13.38-.25.74-.38,1.08a1.94,1.94,0,0,0-.14.85c0,.22.21.3.52.24l1.32-.76c1.06-.62,2.1-1.22,3.1-1.78a23.93,23.93,0,0,1,2.78-1.37,11.31,11.31,0,0,1,3.06-.8c1.69-.12,2.9.25,3.62,1.13s.8,2.1.23,3.67-1.16,2.86-1.78,4.23-.88,2.32-.38,3,2.88-.09,7.15-2.35l3.2-1.88q4.51-2.91,4.89-2.16C334.09,333,333.51,334.06,331.91,335.56Z"/><path class="cls-2" d="M346.39,288.88a2.09,2.09,0,0,1,2.72,1.69,10.86,10.86,0,0,1,.76,3.95,7.15,7.15,0,0,1-.66,3.15,11.9,11.9,0,0,1-1.6,2.49,1.81,1.81,0,0,1-1.22.71,2.32,2.32,0,0,1-1.32-.33c-.63-.31-.6-.85.09-1.6q1.6-3.48,0-5.41c-1-1.28-1.35-2.33-.94-3.15A2.77,2.77,0,0,1,346.39,288.88Z"/><path class="cls-2" d="M367.33,332.08a89.71,89.71,0,0,0-9.79,4.14,5.59,5.59,0,0,0-2.49,1.74c-.22.47-.05,1.33.52,2.59a.78.78,0,0,0,.09.28,15.18,15.18,0,0,1,1.13,4.7q.29,4.89-8.37,6.87t-11.57.14c-2-1.22-2.54-2.77-1.79-4.65s2.71-3.8,5.88-5.74,5.28-3.34,6.35-4.19a2.3,2.3,0,0,0,.94-2.87,9,9,0,0,0-.47-1.13c-.38-.88-.75-1.79-1.13-2.73a10.85,10.85,0,0,1-1-5,6.25,6.25,0,0,1,1.84-4.19c1.13-1.12,2.88-1.72,5.27-1.78a8.94,8.94,0,0,1,3.57.51,4.89,4.89,0,0,1,2.54,2.31,1.39,1.39,0,0,1-.47,2.07,1.58,1.58,0,0,1-1.79.19,6.05,6.05,0,0,1-1.13-.76v-.09a3.11,3.11,0,0,1-.47-.38,2.28,2.28,0,0,0-.56-.56,2.49,2.49,0,0,0-2.26-.52,2.66,2.66,0,0,0-1.69,1.74,7.19,7.19,0,0,0-.38,2.26,8.15,8.15,0,0,0,.66,2.73l.66,1.5a15.9,15.9,0,0,0,1.22,2.59,1.13,1.13,0,0,0,1.13.61q.66-.09,12.14-4.33Q368.37,329.26,367.33,332.08Zm-18.54,16.37a3.35,3.35,0,0,0,2.54-4.05,1.65,1.65,0,0,0-.09-.47,6.8,6.8,0,0,0-.7-2.49c-.35-.59-1.12-.58-2.31.05a47.5,47.5,0,0,0-8.18,5.92,3.37,3.37,0,0,0-.47.57l-.1.09a.73.73,0,0,0-.09.8.72.72,0,0,0,.75.43A17.69,17.69,0,0,0,348.79,348.45Z"/><path class="cls-2" d="M711,222.86a83.34,83.34,0,0,0-11.71-12,95.74,95.74,0,0,0-13.59-9.4,82.54,82.54,0,0,0-37.63-11,105.47,105.47,0,0,0-39,6.11,173.14,173.14,0,0,0-38.8,19.62,279.39,279.39,0,0,0-36.88,29.49,376.58,376.58,0,0,0-33.25,35.75A428.33,428.33,0,0,0,472,319.9a350.65,350.65,0,0,0-21.31,37.49q-3.87,9-7.43,18.15l-3.39,8.28q-.28.75-.57,1.41a26.55,26.55,0,0,1-1.31,3.11,3.55,3.55,0,0,1-1.84,1.69,3.45,3.45,0,0,1-2.49,0,1.73,1.73,0,0,1-1.22-1.69,22.73,22.73,0,0,1,.28-3.58q1.13-6.39,1.74-12.79t1-12.8c.12-1.25.22-2.54.28-3.85.06-.57.13-1.16.19-1.79q.84-11.1,1.41-22.2.29-5.26.19-10.44v-4.14a9.89,9.89,0,0,0-.19-2.73,17.16,17.16,0,0,1-.28-2,24.55,24.55,0,0,0-.57-3,5.6,5.6,0,0,0-1.5-2.59,4.37,4.37,0,0,0-2.87,1.37,11.89,11.89,0,0,0-1.84,2.68c-.31.5-.62,1-.94,1.41a127.3,127.3,0,0,0-9,15.71q-2.91,5.83-5.83,11.66-4.14,8.28-8.28,16.66c-.94,1.82-1.91,3.6-2.92,5.36a10.93,10.93,0,0,1-1.78,2.35,4.08,4.08,0,0,1-4.14,1.08c-1.38-.47-2.17-1.61-2.35-3.43a47,47,0,0,1,.18-8.37q.57-7.82,1.51-15.62L398,327.19q3.94-31.14,7.33-62.47a40.33,40.33,0,0,1,.94-5.26,3.43,3.43,0,0,1,2.36-2.54,2.33,2.33,0,0,1,1.6.18,1.35,1.35,0,0,1,.75,1.32c0,1.38-.06,2.79-.19,4.23q-.94,14.12-2.68,28.84T404.3,321q-1.69,12.7-3.2,25c-.06.63-.13,1.26-.19,1.89-.25,1.75-.47,3.51-.66,5.26a.78.78,0,0,0,.19.52,1.12,1.12,0,0,0,.38.33,1.62,1.62,0,0,0,.52-.14.82.82,0,0,0,.42-.33c.88-1.57,1.72-3.17,2.54-4.8q2.35-4.69,4.7-9.41,4.71-9.4,9.5-18.81a95.29,95.29,0,0,1,7.25-11.85,21.84,21.84,0,0,1,4.42-4.9c2.45-1.75,4.7-2.33,6.77-1.74s3.64,2.31,4.71,5.13a31.43,31.43,0,0,1,1.41,8,93.07,93.07,0,0,1,.19,10.16q-.19,5.07-.57,10.16c-.06.62-.09,1.25-.09,1.88q-.57,8.94-1.32,18.16-.28,4-.56,8.18a5.81,5.81,0,0,0,1.64-1.51,4.91,4.91,0,0,0,.71-1.41,2.25,2.25,0,0,1,.28-.56,292.08,292.08,0,0,1,20-38.57A392,392,0,0,1,524,245.91a293.22,293.22,0,0,1,37-30.62,196.69,196.69,0,0,1,39.13-21.36,120.45,120.45,0,0,1,39.42-8.84,85.41,85.41,0,0,1,38,7Q696,200,712.39,218.25l.38.56a8.34,8.34,0,0,1,2.35,3.58,1.51,1.51,0,0,1-.28,1.36,1.74,1.74,0,0,1-1.22.71,2.51,2.51,0,0,1-1.46-.42A5.48,5.48,0,0,1,711,222.86Z"/><path class="cls-2" d="M505.85,337.35a25,25,0,0,1-5.78,4.19,24,24,0,0,1-5.51,2.25,23.52,23.52,0,0,1-4.56.61,16.92,16.92,0,0,1-7-1q-5.18-2.07-3.58-8a13.81,13.81,0,0,1,6.07-7.95,16.94,16.94,0,0,1,9.46-2.77h.09a7.32,7.32,0,0,1,2.35.19,3.52,3.52,0,0,1,2.4,2.21,3.91,3.91,0,0,1-.7,3.43,9.71,9.71,0,0,1-7.44,4.61,21.53,21.53,0,0,1-6-.28,1.13,1.13,0,0,0-1,.28,1.53,1.53,0,0,0-.52.94c-.57,2.45.19,4,2.26,4.71a12.55,12.55,0,0,0,8,0,23.53,23.53,0,0,0,9.13-5.65c2.88-2.76,4.54-4,5-3.86s.57.73.38,1.6A10.8,10.8,0,0,1,505.85,337.35Zm-18.2-6.87a1.38,1.38,0,0,0-.38.66.61.61,0,0,0,.28.66,5.09,5.09,0,0,0,3.25.61,5.47,5.47,0,0,0,3-1.32,2.93,2.93,0,0,0,1-2.68.79.79,0,0,0-.57-.7,1.87,1.87,0,0,0-.94,0A11,11,0,0,0,487.65,330.48Z"/><path class="cls-2" d="M528.29,285.89a1.44,1.44,0,0,1,.89-.61,7.19,7.19,0,0,1,1.46-.33A3.55,3.55,0,0,1,532,285c.37.09.53.26.47.51a18.46,18.46,0,0,1-1.41,3.86,5.59,5.59,0,0,1-.29.66q-3.57,8.19-7.24,16.27c-.38.82-.72,1.6-1,2.36-.88,1.82-2,4-3.3,6.68s-2.69,5.3-3.76,7.62a8.91,8.91,0,0,1,3.76-2.64,11.07,11.07,0,0,1,3.48-.85c3,.07,4.68,1.57,5,4.52a16.91,16.91,0,0,1-1.79,10.16,24.32,24.32,0,0,1-6.68,8.47,11.76,11.76,0,0,1-6.63,1.74,8.13,8.13,0,0,1-5.6-3.06,1,1,0,0,0-.61.28c-.22.19-.45.41-.7.66a3.28,3.28,0,0,1-1,.85,1.22,1.22,0,0,1-.8.09,1.94,1.94,0,0,1-.7-.28,1.58,1.58,0,0,1-.57-1.88q3.58-9.4,8.42-19.57t9.74-19.85c1.38-2.88,2.73-5.68,4-8.37.57-1.07,1.1-2.17,1.6-3.29Q527.26,288,528.29,285.89Zm-10.73,38.76a24.23,24.23,0,0,0-5.69,5.74,9.21,9.21,0,0,0-1.74,7.15,4.23,4.23,0,0,0,1.79,3c.94.6,2,.4,3.29-.61a30.39,30.39,0,0,0,3.77-4.42,24.66,24.66,0,0,0,3-5.64,19.68,19.68,0,0,0,1.12-4.61c.13-1.32-.21-2.12-1-2.4S519.76,323.21,517.56,324.65Z"/><path class="cls-2" d="M600.47,301.61l8.21-5.51a.75.75,0,0,0,.2-1.05.73.73,0,0,0-.63-.33.74.74,0,0,0-.42.13L600,300.1H590v0a2.91,2.91,0,0,0,0-.31.73.73,0,0,0,.2-.05l8.49-3.6,1.48-13.28a.76.76,0,0,0-.67-.84h-.09a.76.76,0,0,0-.75.68l-1.38,12.4-6.4,2.72a6.4,6.4,0,0,0,.95-3.39c0-3.11-2-5.63-4.54-5.63s-4.54,2.52-4.54,5.63a6.48,6.48,0,0,0,.92,3.34l-6.3-2.67L576,282.66a.77.77,0,0,0-.76-.68h-.08a.75.75,0,0,0-.67.84l1.47,13.28,8.5,3.6.12,0c0,.11,0,.22,0,.33v0h-9.94l-7.83-5.25a.72.72,0,0,0-.42-.13.75.75,0,0,0-.42,1.38l8.2,5.51h10.7a4.12,4.12,0,0,0,.23.47.88.88,0,0,0-.26.06l-10,4.59L568,316.22a.76.76,0,1,0,1.23.88l6.58-9.16,6.92-3.19L579,308.61,577,319a.76.76,0,0,0,1.49.29l1.93-10,5.86-6.06.27.13a1.47,1.47,0,0,0-.19.71.94.94,0,1,0,1.82,0,1.47,1.47,0,0,0-.19-.71l.33-.15,5.87,6.08,1.93,10a.76.76,0,0,0,1.49-.29l-2-10.43-3.73-3.86,6.92,3.19,6.58,9.16a.76.76,0,1,0,1.24-.88l-6.82-9.49-10-4.59a.71.71,0,0,0-.32-.07h0a4.09,4.09,0,0,0,.23-.47Z"/><polygon class="cls-2" points="587.18 203.02 584.6 203.07 586.34 294.4 588.93 294.35 587.18 203.02"/></g></svg>