<svg id="horz-blk" xmlns="http://www.w3.org/2000/svg" viewBox="0 0 792 612"><defs><style>.cls-1{fill:#b6465f;}.cls-2{fill:#fff;}.cls-3{fill:#231f20;}.cls-4{fill:#010101;}</style></defs><path class="cls-1" d="M698.72,269.4h-143a5.83,5.83,0,0,0-5.83,5.82v81.21a5.84,5.84,0,0,0,5.83,5.83h143a5.83,5.83,0,0,0,5.82-5.83V275.22A5.83,5.83,0,0,0,698.72,269.4ZM555.56,356.8V274.85H698.84V356.8Z"/><path class="cls-2" d="M626.91,273.49h0a1.29,1.29,0,0,0,.29,0,1.27,1.27,0,0,0,.28,0,1.35,1.35,0,0,0,.72-.37,1.49,1.49,0,0,0-.77-2.55.93.93,0,0,0-.23,0,.9.9,0,0,0-.23,0h-.07a1.46,1.46,0,0,0-1.19,1.45,1.44,1.44,0,0,0,.48,1.09A1.39,1.39,0,0,0,626.91,273.49Z"/><path class="cls-1" d="M538.49,362.22v3.53c0,2.19,3.56,4,8,4H708c4.4,0,8-1.79,8-4v-3.53Z"/><path class="cls-2" d="M617.4,362.26v.5c0,.32.39.57.88.57h17.84c.49,0,.88-.25.88-.57v-.5Z"/><rect class="cls-2" x="555.56" y="274.85" width="143.28" height="81.95"/><path class="cls-3" d="M308.57,400.94a1.29,1.29,0,0,1,.47.66.62.62,0,0,1-.29.66,150.68,150.68,0,0,1-35,18.25A108,108,0,0,1,237,427a96.2,96.2,0,0,1-37.63-8,115,115,0,0,1-43.08-32.27c-.19-.25-.35-.47-.47-.66a6.46,6.46,0,0,1-.57-.66,14,14,0,0,0-1.31-1.46,2.3,2.3,0,0,0-1-.61,16.84,16.84,0,0,0-2.73,1A67.58,67.58,0,0,1,138,388.71a51.92,51.92,0,0,1-13.26,1.65,28.36,28.36,0,0,1-12.23-2.73,21.75,21.75,0,0,1-9.27-8.89A41,41,0,0,1,99,367.92a54.26,54.26,0,0,1-1.41-11.57,93.47,93.47,0,0,1,5.17-32.83,11.59,11.59,0,0,1,.47-1.32c.25-.62.47-1.22.66-1.78a1.89,1.89,0,0,0-.85-2.36,4.41,4.41,0,0,1-.75-.47,24.82,24.82,0,0,1-2.45-1.5Q87.21,307.52,88.15,292a45.35,45.35,0,0,1,7-20.5A90.09,90.09,0,0,1,111.71,252a132.75,132.75,0,0,1,22.68-16.41A128.34,128.34,0,0,1,160,224.27,87.13,87.13,0,0,1,185.23,220a45.78,45.78,0,0,1,21.69,4.75q9.54,4.89,14.81,15.71a56.27,56.27,0,0,1,5,24.27q-.09,1.69-.09,3.39a10.84,10.84,0,0,0-.1,1.51,104.22,104.22,0,0,1-3.24,22.76,138.52,138.52,0,0,1-7.67,21.83,151.75,151.75,0,0,1-22.53,36,145.51,145.51,0,0,1-31.94,28,3.35,3.35,0,0,1-.47.28c-.5.32-1,.63-1.41.94a1.52,1.52,0,0,0-.19,2.36,2.86,2.86,0,0,1,.28.47l.38.37a114.44,114.44,0,0,0,34,29.12,94.85,94.85,0,0,0,40.64,11.76q21.59,1.26,44.35-7.86a111.55,111.55,0,0,0,21.64-12.23c1.51-1,3.07-1.94,4.7-2.82a3.59,3.59,0,0,1,1.6-.38A3.28,3.28,0,0,1,308.57,400.94ZM155.88,376.86a1.93,1.93,0,0,0,1-.38c.56-.37,1.16-.75,1.78-1.13,1.89-1.25,3.73-2.54,5.55-3.85a146.1,146.1,0,0,0,48.08-62.37,117.46,117.46,0,0,0,6.25-19.57,132.31,132.31,0,0,0,3-21.92,65.91,65.91,0,0,0-.85-11.48A47.5,47.5,0,0,0,215,238.85a29,29,0,0,0-14.06-12.46,43.15,43.15,0,0,0-19.66-2.87,85.42,85.42,0,0,0-22.58,4.89,121.52,121.52,0,0,0-22.77,10.87,126.73,126.73,0,0,0-20.18,15.14,87,87,0,0,0-14.91,17.69,45.18,45.18,0,0,0-6.91,18.39q-1.69,15,10.44,23.33a3.35,3.35,0,0,0,1.41.75,2.58,2.58,0,0,0,1.32-1.31c.5-.76,1-1.48,1.41-2.17.69-1.19,1.41-2.32,2.16-3.38a3.31,3.31,0,0,1,2.82-1.6h.38a1.65,1.65,0,0,1,1.18.51,1,1,0,0,1,.23,1.18c-.5,1-1,2-1.6,3-.75,1.26-1.44,2.51-2.07,3.76q-1.5,2.64,1.23,3.3a33.83,33.83,0,0,0,16.69,1,36.49,36.49,0,0,0,14.87-6.59,39.24,39.24,0,0,0,10.91-12.41A38,38,0,0,0,160,283.35,35.44,35.44,0,0,0,157.29,267a1.56,1.56,0,0,1,.1-1.5,1.78,1.78,0,0,1,1.6-.66,1.58,1.58,0,0,1,.75,0A3.14,3.14,0,0,1,162,267a34.16,34.16,0,0,1,2.44,9.88,38.78,38.78,0,0,1-2.54,19.52,42.13,42.13,0,0,1-11.24,15.9A40.32,40.32,0,0,1,133,321.36a46.67,46.67,0,0,1-21.45-.1,7.91,7.91,0,0,0-1.88-.28,1.3,1.3,0,0,0-1.08.56,6.16,6.16,0,0,0-.8,1.7A105.81,105.81,0,0,0,103.58,340a82.28,82.28,0,0,0-1,17.12,47.09,47.09,0,0,0,4,17.88q3.1,6.87,8.09,9.78a21.59,21.59,0,0,0,10.91,3,38.28,38.28,0,0,0,12-1.93,68.65,68.65,0,0,0,11.67-5,1.43,1.43,0,0,0,.56-2.26c-.69-1-1.35-2-2-2.91-1.57-2.32-3.11-4.65-4.61-7a75.76,75.76,0,0,1-6.87-13.93,36.06,36.06,0,0,1-1.13-3.62,15.41,15.41,0,0,1-.47-3.81,12.75,12.75,0,0,1,.47-2.63,2.18,2.18,0,0,1,1-1.27A3.36,3.36,0,0,1,138,343a4.54,4.54,0,0,1,.84.1,1.19,1.19,0,0,1,1,.8,3,3,0,0,1,.09,1.27,17.55,17.55,0,0,0,1.41,7.43,73.91,73.91,0,0,0,5.79,12.18q3.43,5.79,7.38,11.15A2.19,2.19,0,0,0,155.88,376.86Z"/><path class="cls-3" d="M218.82,346.19q-4,0-4-4.23,0-5.18,6.68-18.25a1,1,0,0,1,.94-.57c1.82,0,2.73.72,2.73,2.17a5.18,5.18,0,0,1-.47,1.88q-.19.29-4.51,11.29a8.67,8.67,0,0,0-.66,2.63c0,.63.28.94.84.94q3.1,0,16.37-15.52,1.69-2.07,3.39-2.07c1.63,0,2.44.6,2.44,1.79a33.81,33.81,0,0,1-1.5,5.17,43.86,43.86,0,0,0-2.07,7.06c0,.94.31,1.41.94,1.41q2.36,0,13.74-8.37a1.86,1.86,0,0,1,1.12-.57c.69,0,1,.6,1,1.79a1,1,0,0,1-.28.75,96.35,96.35,0,0,1-10.26,7.9,13.17,13.17,0,0,1-6.86,2.45h-.57q-4.42-.94-4.42-6.87-4.71,4.14-7.81,6.68A10.44,10.44,0,0,1,218.82,346.19Z"/><path class="cls-3" d="M275.45,339.42a20.51,20.51,0,0,1-3.2,2,23.19,23.19,0,0,1-5.83,2.4,26.49,26.49,0,0,1-4.8.61,18.47,18.47,0,0,1-7.24-1q-5.37-2.26-3.76-8.47a14.46,14.46,0,0,1,6.39-8.28,17.79,17.79,0,0,1,9.88-2.91,7,7,0,0,1,2.54.28A3.25,3.25,0,0,1,272,326.2a4.49,4.49,0,0,1-.75,3.62,10.25,10.25,0,0,1-7.81,4.8,19.11,19.11,0,0,1-6.3-.28,1.17,1.17,0,0,0-1,.28,1.66,1.66,0,0,0-.47.94c-.63,2.57.16,4.27,2.35,5.08a13.22,13.22,0,0,0,8.38-.09,24.74,24.74,0,0,0,9.5-5.93.3.3,0,0,0,.19-.09,13.32,13.32,0,0,1,5.45-6.49,15.61,15.61,0,0,1,8.75-2.54h.09a14.25,14.25,0,0,1,2.26.18,3,3,0,0,1,2.21,2.07,4.18,4.18,0,0,1-.61,3.3,9.15,9.15,0,0,1-7.05,4.23,19,19,0,0,1-5.65-.28.91.91,0,0,0-.89.28,1.86,1.86,0,0,0-.43.85q-.84,3.48,2.07,4.51a11.45,11.45,0,0,0,7.53-.09,22,22,0,0,0,8.56-5.27q4.05-3.86,4.66-3.62c.41.15.52.67.33,1.55a10.26,10.26,0,0,1-2.87,4.23,23.22,23.22,0,0,1-5.41,3.91,22.3,22.3,0,0,1-5.18,2.11,23.19,23.19,0,0,1-4.32.57,16,16,0,0,1-6.49-.94A5.61,5.61,0,0,1,275.45,339.42Zm-16.27-9.6a1.38,1.38,0,0,0-.38.66c-.06.25.06.47.38.66a4.71,4.71,0,0,0,3.34.66,6.07,6.07,0,0,0,3.1-1.37,3,3,0,0,0,1.08-2.77.8.8,0,0,0-.56-.71,2.4,2.4,0,0,0-1,0A11.73,11.73,0,0,0,259.18,329.82ZM283.35,331a1.19,1.19,0,0,0-.33.61.65.65,0,0,0,.33.61,4.67,4.67,0,0,0,3,.57,5,5,0,0,0,2.77-1.18,3,3,0,0,0,1-2.58.66.66,0,0,0-.52-.57,4.78,4.78,0,0,0-1-.09A11,11,0,0,0,283.35,331Z"/><path class="cls-3" d="M332,335.56a27.4,27.4,0,0,1-5.08,3.81,54.74,54.74,0,0,1-6.26,3.06,9.2,9.2,0,0,1-5,.7c-1.75-.22-2.63-1.28-2.63-3.19a13.36,13.36,0,0,1,1.32-5.7c.88-1.94,1.06-2.94.56-3s-1.54.41-3.1,1.41a77.35,77.35,0,0,0-11.39,9.22,5.08,5.08,0,0,1-3.57,1.89,2.19,2.19,0,0,1-1.74-.71,1.24,1.24,0,0,1-.14-1.55q3.76-7,7.62-13.74a3.76,3.76,0,0,1,2.54-1.78,1.6,1.6,0,0,1,1.36.47,1.71,1.71,0,0,1,.61,1.31,5.39,5.39,0,0,1-.56,1.6c-.13.38-.25.74-.38,1.08a1.94,1.94,0,0,0-.14.85c0,.22.2.3.52.24l1.32-.76c1.06-.62,2.1-1.22,3.1-1.78a23.93,23.93,0,0,1,2.78-1.37,11.34,11.34,0,0,1,3-.8c1.7-.12,2.9.25,3.63,1.13s.8,2.1.23,3.67-1.16,2.86-1.79,4.23-.88,2.32-.37,3,2.88-.09,7.15-2.35l3.2-1.88q4.51-2.91,4.89-2.16C334.21,333,333.64,334.06,332,335.56Z"/><path class="cls-3" d="M346.52,288.88a2.09,2.09,0,0,1,2.72,1.69,11.07,11.07,0,0,1,.76,3.95,7.3,7.3,0,0,1-.66,3.15,12.32,12.32,0,0,1-1.6,2.49,1.81,1.81,0,0,1-1.22.71,2.32,2.32,0,0,1-1.32-.33c-.63-.31-.6-.85.09-1.6,1.07-2.32,1.08-4.12,0-5.41s-1.35-2.33-.94-3.15A2.77,2.77,0,0,1,346.52,288.88Z"/><path class="cls-3" d="M367.46,332.08a89.71,89.71,0,0,0-9.79,4.14,5.59,5.59,0,0,0-2.49,1.74c-.22.47-.05,1.33.52,2.59a.78.78,0,0,0,.09.28,15.18,15.18,0,0,1,1.13,4.7q.29,4.89-8.37,6.87t-11.57.14c-2-1.22-2.54-2.77-1.79-4.65s2.71-3.8,5.88-5.74,5.28-3.34,6.35-4.19a2.31,2.31,0,0,0,.94-2.87,9,9,0,0,0-.47-1.13c-.38-.88-.75-1.79-1.13-2.73a10.85,10.85,0,0,1-1-5,6.25,6.25,0,0,1,1.84-4.19c1.12-1.12,2.88-1.72,5.26-1.78a9,9,0,0,1,3.58.51,4.89,4.89,0,0,1,2.54,2.31,1.39,1.39,0,0,1-.47,2.07,1.58,1.58,0,0,1-1.79.19,5.74,5.74,0,0,1-1.13-.76v-.09a2.68,2.68,0,0,1-.47-.38,2.46,2.46,0,0,0-.56-.56,2.5,2.5,0,0,0-2.26-.52,2.66,2.66,0,0,0-1.69,1.74,7.19,7.19,0,0,0-.38,2.26,8.15,8.15,0,0,0,.66,2.73l.66,1.5a15.9,15.9,0,0,0,1.22,2.59,1.12,1.12,0,0,0,1.13.61q.66-.09,12.13-4.33Q368.5,329.26,367.46,332.08Zm-18.54,16.37a3.35,3.35,0,0,0,2.54-4.05,1.65,1.65,0,0,0-.09-.47,6.6,6.6,0,0,0-.71-2.49c-.34-.59-1.11-.58-2.3.05a48,48,0,0,0-8.19,5.92,4.72,4.72,0,0,0-.47.57l-.09.09a.73.73,0,0,0-.09.8.72.72,0,0,0,.75.43A17.69,17.69,0,0,0,348.92,348.45Z"/><path class="cls-3" d="M711.11,222.86a83.34,83.34,0,0,0-11.71-12,95.83,95.83,0,0,0-13.6-9.4,82.51,82.51,0,0,0-37.63-11,105.42,105.42,0,0,0-39,6.11,173.14,173.14,0,0,0-38.8,19.62,278.74,278.74,0,0,0-36.88,29.49,378,378,0,0,0-33.26,35.75,432.29,432.29,0,0,0-28.08,38.43,352.22,352.22,0,0,0-21.3,37.49q-3.87,9-7.44,18.15L440,383.82q-.28.75-.57,1.41a26.55,26.55,0,0,1-1.31,3.11,3.55,3.55,0,0,1-1.84,1.69,3.45,3.45,0,0,1-2.49,0,1.73,1.73,0,0,1-1.22-1.69,22.73,22.73,0,0,1,.28-3.58q1.13-6.39,1.74-12.79c.41-4.27.73-8.53,1-12.8.12-1.25.22-2.54.28-3.85.06-.57.12-1.16.19-1.79q.84-11.1,1.41-22.2.29-5.26.19-10.44v-4.14a9.89,9.89,0,0,0-.19-2.73,19.62,19.62,0,0,1-.29-2,22.72,22.72,0,0,0-.56-3,5.6,5.6,0,0,0-1.5-2.59,4.35,4.35,0,0,0-2.87,1.37,11.27,11.27,0,0,0-1.84,2.68c-.31.5-.63,1-.94,1.41a124.8,124.8,0,0,0-9,15.71q-2.91,5.83-5.83,11.66-4.14,8.28-8.28,16.66c-.94,1.82-1.92,3.6-2.92,5.36a11,11,0,0,1-1.79,2.35,4.06,4.06,0,0,1-4.13,1.08c-1.38-.47-2.17-1.61-2.36-3.43a47.92,47.92,0,0,1,.19-8.37q.57-7.82,1.51-15.62c.44-3.39.88-6.77,1.31-10.16q4-31.14,7.34-62.47a38.72,38.72,0,0,1,.94-5.26,3.44,3.44,0,0,1,2.35-2.54,2.31,2.31,0,0,1,1.6.18,1.34,1.34,0,0,1,.76,1.32c0,1.38-.07,2.79-.19,4.23q-.94,14.12-2.68,28.84T404.43,321q-1.69,12.7-3.2,25c-.06.63-.13,1.26-.19,1.89-.25,1.75-.47,3.51-.66,5.26a.78.78,0,0,0,.19.52,1.12,1.12,0,0,0,.38.33,1.51,1.51,0,0,0,.51-.14.86.86,0,0,0,.43-.33c.88-1.57,1.72-3.17,2.54-4.8l4.7-9.41q4.71-9.4,9.5-18.81a94.1,94.1,0,0,1,7.25-11.85,21.61,21.61,0,0,1,4.42-4.9q3.66-2.62,6.77-1.74t4.7,5.13a31,31,0,0,1,1.42,8,90.62,90.62,0,0,1,.18,10.16q-.18,5.07-.56,10.16c-.06.62-.09,1.25-.09,1.88q-.57,8.94-1.32,18.16-.28,4-.57,8.18a5.73,5.73,0,0,0,1.65-1.51,5.18,5.18,0,0,0,.71-1.41,2.25,2.25,0,0,1,.28-.56,292.08,292.08,0,0,1,20-38.57,392,392,0,0,1,60.63-75.73,293.22,293.22,0,0,1,37-30.62,196.69,196.69,0,0,1,39.13-21.36,120.45,120.45,0,0,1,39.42-8.84,85.34,85.34,0,0,1,38,7q18.45,7.91,34.81,26.15l.38.56a8.43,8.43,0,0,1,2.35,3.58,1.54,1.54,0,0,1-.28,1.36,1.76,1.76,0,0,1-1.23.71,2.48,2.48,0,0,1-1.45-.42A5.48,5.48,0,0,1,711.11,222.86Z"/><path class="cls-3" d="M506,337.35a24.83,24.83,0,0,1-5.79,4.19,20.7,20.7,0,0,1-10.06,2.86,16.92,16.92,0,0,1-7-1q-5.18-2.07-3.58-8a13.81,13.81,0,0,1,6.07-7.95,16.91,16.91,0,0,1,9.45-2.77h.1a7.34,7.34,0,0,1,2.35.19,3.54,3.54,0,0,1,2.4,2.21,3.92,3.92,0,0,1-.71,3.43,9.68,9.68,0,0,1-7.43,4.61,21.51,21.51,0,0,1-6-.28,1.16,1.16,0,0,0-1,.28,1.57,1.57,0,0,0-.51.94q-.85,3.68,2.25,4.71a12.58,12.58,0,0,0,8,0,23.53,23.53,0,0,0,9.13-5.65c2.88-2.76,4.54-4,5-3.86s.57.73.38,1.6A10.8,10.8,0,0,1,506,337.35Zm-18.2-6.87a1.38,1.38,0,0,0-.38.66.61.61,0,0,0,.28.66,5.09,5.09,0,0,0,3.25.61,5.47,5.47,0,0,0,3-1.32,2.93,2.93,0,0,0,1-2.68.8.8,0,0,0-.57-.7,1.87,1.87,0,0,0-.94,0A11,11,0,0,0,487.78,330.48Z"/><path class="cls-3" d="M528.42,285.89a1.44,1.44,0,0,1,.89-.61,7.19,7.19,0,0,1,1.46-.33,3.55,3.55,0,0,1,1.32.05c.37.09.53.26.47.51a18.46,18.46,0,0,1-1.41,3.86,5.59,5.59,0,0,1-.29.66q-3.57,8.19-7.24,16.27c-.38.82-.72,1.6-1,2.36-.87,1.82-2,4-3.29,6.68s-2.69,5.3-3.76,7.62a8.91,8.91,0,0,1,3.76-2.64,11.07,11.07,0,0,1,3.48-.85c3,.07,4.68,1.57,5,4.52A17,17,0,0,1,526,334.15a24.32,24.32,0,0,1-6.68,8.47,11.76,11.76,0,0,1-6.63,1.74,8.13,8.13,0,0,1-5.6-3.06,1,1,0,0,0-.61.28c-.22.19-.45.41-.7.66a3.28,3.28,0,0,1-1,.85,1.22,1.22,0,0,1-.8.09,1.87,1.87,0,0,1-.7-.28,1.58,1.58,0,0,1-.57-1.88q3.58-9.4,8.42-19.57t9.74-19.85c1.38-2.88,2.73-5.68,4-8.37.57-1.07,1.1-2.17,1.6-3.29Q527.39,288,528.42,285.89Zm-10.73,38.76a24.23,24.23,0,0,0-5.69,5.74,9.21,9.21,0,0,0-1.74,7.15,4.23,4.23,0,0,0,1.79,3c.94.6,2,.4,3.29-.61a29.76,29.76,0,0,0,3.76-4.42,23.91,23.91,0,0,0,3-5.64,19.27,19.27,0,0,0,1.13-4.61c.13-1.32-.22-2.12-1-2.4S519.89,323.21,517.69,324.65Z"/><path class="cls-3" d="M600.6,301.61l8.21-5.51a.75.75,0,0,0,.2-1.05.73.73,0,0,0-.63-.33.74.74,0,0,0-.42.13l-7.82,5.25h-10v0a2.91,2.91,0,0,0,0-.31.73.73,0,0,0,.2-.05l8.49-3.6,1.47-13.28a.75.75,0,0,0-.66-.84h-.09a.76.76,0,0,0-.75.68l-1.38,12.4-6.4,2.72a6.49,6.49,0,0,0,.95-3.39c0-3.11-2-5.63-4.54-5.63s-4.54,2.52-4.54,5.63a6.39,6.39,0,0,0,.92,3.34l-6.3-2.67-1.38-12.4a.76.76,0,0,0-.75-.68h-.08a.75.75,0,0,0-.67.84L576,296.11l8.49,3.6.13,0c0,.11,0,.22,0,.33v0h-10l-7.82-5.25a.72.72,0,0,0-.42-.13.75.75,0,0,0-.42,1.38l8.2,5.51h10.7a4.12,4.12,0,0,0,.23.47.82.82,0,0,0-.26.06l-10,4.59-6.81,9.49a.76.76,0,0,0,.17,1.06.77.77,0,0,0,1.06-.18l6.58-9.16,6.92-3.19-3.73,3.86-2,10.43a.76.76,0,0,0,1.49.29l1.93-10,5.86-6.06.27.13a1.37,1.37,0,0,0-.19.71.94.94,0,1,0,1.82,0,1.47,1.47,0,0,0-.19-.71,3.13,3.13,0,0,0,.32-.15l5.88,6.08,1.93,10a.76.76,0,0,0,1.49-.29l-2-10.43L592,304.75l6.92,3.19,6.58,9.16a.77.77,0,0,0,1.06.18.76.76,0,0,0,.17-1.06l-6.81-9.49-10-4.59a.71.71,0,0,0-.32-.07h0a4,4,0,0,0,.22-.47Z"/><polygon class="cls-4" points="587.31 203.02 584.73 203.07 586.47 294.4 589.06 294.35 587.31 203.02"/></svg>