<svg xmlns="http://www.w3.org/2000/svg" viewBox="0 0 792 612"><defs><style>.cls-1{fill:#b6465f;}.cls-2{fill:#fff;}</style></defs><g id="square-wht"><g id="rounded_square" data-name="rounded square"><path class="cls-1" d="M456.52,441.42H258.79a36.6,36.6,0,0,1-36.56-36.56V207.14a36.6,36.6,0,0,1,36.56-36.56H456.52a36.61,36.61,0,0,1,36.56,36.56V404.86A36.61,36.61,0,0,1,456.52,441.42ZM258.79,177.79a29.38,29.38,0,0,0-29.35,29.35V404.86a29.38,29.38,0,0,0,29.35,29.35H456.52a29.38,29.38,0,0,0,29.35-29.35V207.14a29.38,29.38,0,0,0-29.35-29.35Z"/></g><path class="cls-2" d="M416.16,375.76a.81.81,0,0,1,.32.45.42.42,0,0,1-.19.45,103.62,103.62,0,0,1-23.94,12.49,73.94,73.94,0,0,1-25.17,4.44,65.85,65.85,0,0,1-25.75-5.47A78.74,78.74,0,0,1,312,366l-.32-.45a4.48,4.48,0,0,1-.38-.45,11.29,11.29,0,0,0-.9-1,1.55,1.55,0,0,0-.71-.42,11.27,11.27,0,0,0-1.87.71,45.84,45.84,0,0,1-8.33,3,35.74,35.74,0,0,1-9.08,1.13,19.63,19.63,0,0,1-8.37-1.87,14.89,14.89,0,0,1-6.34-6.08,28,28,0,0,1-2.89-7.4,37.31,37.31,0,0,1-1-7.92,64,64,0,0,1,3.54-22.46,9,9,0,0,1,.32-.91c.17-.42.32-.83.45-1.22a1.29,1.29,0,0,0-.58-1.61,2.86,2.86,0,0,1-.51-.32,15.69,15.69,0,0,1-1.67-1q-8.62-5.85-8-16.48a31.24,31.24,0,0,1,4.83-14,61.46,61.46,0,0,1,11.3-13.32A89.9,89.9,0,0,1,297,262.64a87.25,87.25,0,0,1,17.51-7.76A59.77,59.77,0,0,1,331.78,252a31.3,31.3,0,0,1,14.83,3.25A22.84,22.84,0,0,1,356.75,266a38.49,38.49,0,0,1,3.41,16.61c0,.77-.06,1.54-.06,2.32a8.76,8.76,0,0,0-.07,1,71,71,0,0,1-2.22,15.57,94.29,94.29,0,0,1-5.24,14.93,103.76,103.76,0,0,1-15.42,24.66,99.58,99.58,0,0,1-21.85,19.18,3.27,3.27,0,0,1-.32.19c-.34.21-.67.43-1,.64a1,1,0,0,0-.12,1.61c.08.13.15.24.19.32l.26.26a78.06,78.06,0,0,0,23.26,19.92,64.81,64.81,0,0,0,27.81,8.05,70,70,0,0,0,30.35-5.38,76.58,76.58,0,0,0,14.8-8.36c1-.69,2.1-1.33,3.22-1.94a2.42,2.42,0,0,1,1.09-.25A2.24,2.24,0,0,1,416.16,375.76ZM311.7,359.28a1.35,1.35,0,0,0,.71-.26c.38-.25.79-.51,1.22-.77,1.29-.86,2.55-1.74,3.8-2.64a100,100,0,0,0,32.89-42.67,81.63,81.63,0,0,0,4.28-13.39,90.75,90.75,0,0,0,2-15,43.53,43.53,0,0,0-.58-7.85,32.27,32.27,0,0,0-3.92-11.84,19.91,19.91,0,0,0-9.62-8.53,29.53,29.53,0,0,0-13.46-2,58.67,58.67,0,0,0-15.44,3.34A83.13,83.13,0,0,0,298,265.15a87.5,87.5,0,0,0-13.81,10.36,59.26,59.26,0,0,0-10.2,12.1,31,31,0,0,0-4.73,12.58q-1.15,10.24,7.15,16a2.25,2.25,0,0,0,1,.51q.45-.12.9-.9c.34-.52.67-1,1-1.48.47-.82,1-1.59,1.48-2.32a2.27,2.27,0,0,1,1.93-1.09h.26a1.13,1.13,0,0,1,.8.35.68.68,0,0,1,.16.81c-.34.68-.71,1.37-1.09,2.06-.52.86-1,1.71-1.42,2.57q-1,1.8.84,2.25a23,23,0,0,0,11.42.71,25,25,0,0,0,10.17-4.5,26.91,26.91,0,0,0,7.47-8.5,26.08,26.08,0,0,0,3.25-11.33,24.34,24.34,0,0,0-1.87-11.2.91.91,0,0,1-.09-.54,1,1,0,0,1,.16-.49,1.23,1.23,0,0,1,1.09-.45,1.14,1.14,0,0,1,.52,0,2.17,2.17,0,0,1,1.54,1.48,23.19,23.19,0,0,1,1.67,6.76,26.63,26.63,0,0,1-1.73,13.36,28.82,28.82,0,0,1-7.7,10.87,27.62,27.62,0,0,1-12.06,6.22,32.07,32.07,0,0,1-14.68-.07,5.35,5.35,0,0,0-1.29-.19.91.91,0,0,0-.74.38,4.37,4.37,0,0,0-.54,1.16,71.81,71.81,0,0,0-2.9,11.46,56.56,56.56,0,0,0-.71,11.71A32.16,32.16,0,0,0,278,358a14.19,14.19,0,0,0,5.54,6.7,14.72,14.72,0,0,0,7.46,2,25.56,25.56,0,0,0,8.24-1.32,46.28,46.28,0,0,0,8-3.41,1,1,0,0,0,.39-1.54c-.47-.69-.93-1.35-1.35-2q-1.62-2.37-3.16-4.76a51.78,51.78,0,0,1-4.7-9.53c-.3-.81-.55-1.64-.77-2.47a10.72,10.72,0,0,1-.32-2.61,8.73,8.73,0,0,1,.32-1.8,1.51,1.51,0,0,1,.71-.87,2.35,2.35,0,0,1,1.16-.29,3.26,3.26,0,0,1,.58.06.83.83,0,0,1,.64.55,1.82,1.82,0,0,1,.06.87,11.9,11.9,0,0,0,1,5.08,49.8,49.8,0,0,0,4,8.34q2.35,4,5.05,7.63A1.49,1.49,0,0,0,311.7,359.28Z"/><path class="cls-2" d="M566.9,253.92a56.93,56.93,0,0,0-8-8.18,65.16,65.16,0,0,0-9.3-6.43,56.61,56.61,0,0,0-25.75-7.54A72.11,72.11,0,0,0,497.13,236a118,118,0,0,0-26.55,13.42,190.54,190.54,0,0,0-25.23,20.18A257.17,257.17,0,0,0,422.6,294a292.85,292.85,0,0,0-19.22,26.29A242,242,0,0,0,388.81,346q-2.64,6.18-5.09,12.42c-.77,1.89-1.54,3.77-2.32,5.66-.13.35-.25.67-.38,1a19,19,0,0,1-.9,2.12,2.4,2.4,0,0,1-1.26,1.16,2.27,2.27,0,0,1-1.7,0,1.19,1.19,0,0,1-.84-1.16,15.43,15.43,0,0,1,.19-2.44c.52-2.92.91-5.84,1.19-8.76s.51-5.83.68-8.75c.08-.86.15-1.74.19-2.64,0-.39.09-.79.13-1.22q.58-7.6,1-15.19c.12-2.4.17-4.79.12-7.15v-2.83a6.76,6.76,0,0,0-.12-1.86,11.11,11.11,0,0,1-.2-1.36,15.3,15.3,0,0,0-.38-2,3.89,3.89,0,0,0-1-1.77,3,3,0,0,0-2,.93,8.11,8.11,0,0,0-1.25,1.83c-.22.35-.43.67-.65,1A85.94,85.94,0,0,0,368,325.62c-1.33,2.66-2.67,5.32-4,8q-2.83,5.67-5.67,11.39c-.64,1.25-1.31,2.47-2,3.67a7.88,7.88,0,0,1-1.23,1.61,2.8,2.8,0,0,1-2.83.74,2.48,2.48,0,0,1-1.61-2.35,32.36,32.36,0,0,1,.13-5.73q.39-5.34,1-10.68l.9-6.95q2.7-21.32,5-42.74a25.6,25.6,0,0,1,.65-3.61,2.35,2.35,0,0,1,1.61-1.73,1.57,1.57,0,0,1,1.09.12.94.94,0,0,1,.51.91c0,.94,0,1.91-.13,2.89q-.63,9.66-1.83,19.73t-2.61,20.18q-1.15,8.68-2.18,17.12c-.05.43-.09.86-.13,1.29q-.27,1.8-.45,3.6a.55.55,0,0,0,.12.35.87.87,0,0,0,.26.23.89.89,0,0,0,.36-.1.58.58,0,0,0,.29-.22c.6-1.07,1.18-2.17,1.73-3.28l3.22-6.44q3.22-6.44,6.5-12.87a63.7,63.7,0,0,1,5-8.11,15.16,15.16,0,0,1,3-3.35c1.68-1.2,3.22-1.6,4.64-1.19s2.49,1.58,3.22,3.51a21.27,21.27,0,0,1,1,5.47,62,62,0,0,1,.13,6.95c-.09,2.32-.21,4.63-.39,6.95q-.06.65-.06,1.29-.39,6.11-.9,12.42c-.13,1.84-.26,3.71-.39,5.6a4.12,4.12,0,0,0,1.13-1,3.23,3.23,0,0,0,.48-1,1.56,1.56,0,0,1,.2-.38,199.45,199.45,0,0,1,13.7-26.39,268.16,268.16,0,0,1,18.83-26.81,263,263,0,0,1,22.66-25,201.87,201.87,0,0,1,25.32-21,135.41,135.41,0,0,1,26.78-14.61,82.54,82.54,0,0,1,27-6.05,58.49,58.49,0,0,1,26,4.8q12.62,5.4,23.82,17.89l.25.39a5.65,5.65,0,0,1,1.61,2.44,1.05,1.05,0,0,1-.19.94,1.19,1.19,0,0,1-.84.48,1.7,1.7,0,0,1-1-.29A3.59,3.59,0,0,1,566.9,253.92Z"/><path class="cls-2" d="M464.8,337.3l8.86-5.95a.81.81,0,0,0,.23-1.13.82.82,0,0,0-.68-.37.86.86,0,0,0-.46.14l-8.45,5.67H453.48v0c0-.12,0-.23,0-.35a.52.52,0,0,0,.21,0l9.17-3.89,1.6-14.35a.82.82,0,0,0-.73-.9h-.09a.82.82,0,0,0-.81.73l-1.49,13.39-6.91,2.94a7,7,0,0,0,1-3.66c0-3.36-2.2-6.08-4.91-6.08s-4.9,2.72-4.9,6.08a7,7,0,0,0,1,3.61l-6.8-2.89-1.49-13.39a.81.81,0,0,0-.81-.73h-.09a.81.81,0,0,0-.72.9l1.59,14.35,9.17,3.89a.58.58,0,0,0,.14,0c0,.12,0,.23,0,.36v0H436.8L428.35,330a.82.82,0,0,0-.45-.14.81.81,0,0,0-.68.37.82.82,0,0,0,.22,1.13l8.86,5.95h11.56a3,3,0,0,0,.25.51.88.88,0,0,0-.28.06l-10.75,4.95-7.36,10.26a.82.82,0,0,0,1.33.95l7.11-9.9,7.47-3.45-4,4.18-2.18,11.26a.82.82,0,0,0,1.61.32l2.09-10.79,6.32-6.55a2.75,2.75,0,0,0,.3.14,1.47,1.47,0,0,0-.21.77,1,1,0,1,0,2,0,1.57,1.57,0,0,0-.2-.77,2.72,2.72,0,0,0,.35-.16l6.35,6.57,2.08,10.79a.82.82,0,0,0,1,.64.81.81,0,0,0,.65-1l-2.18-11.26-4-4.18,7.48,3.45,7.1,9.9a.82.82,0,0,0,1.14.19.81.81,0,0,0,.19-1.14L464,342.82l-10.74-4.95a.84.84,0,0,0-.35-.07h0a3.85,3.85,0,0,0,.24-.5Z"/><polygon class="cls-2" points="450.45 264.56 447.66 264.61 449.54 329.51 452.33 329.46 450.45 264.56"/></g></svg>